<?xml version="1.0" standalone="no"?>
<!DOCTYPE svg PUBLIC "-//W3C//DTD SVG 20010904//EN"
 "http://www.w3.org/TR/2001/REC-SVG-20010904/DTD/svg10.dtd">
<svg version="1.0" xmlns="http://www.w3.org/2000/svg"
 width="700.000000pt" height="700.000000pt" viewBox="0 0 700.000000 700.000000"
 preserveAspectRatio="xMidYMid meet">
<metadata>
Created by potrace 1.14, written by Peter Selinger 2001-2017
</metadata>
<g transform="translate(0.000000,700.000000) scale(0.100000,-0.100000)"
fill="#000000" stroke="none">
<path d="M0 3500 l0 -3500 3500 0 3500 0 0 3500 0 3500 -3500 0 -3500 0 0
-3500z m5120 2693 c82 -39 107 -58 186 -137 145 -146 207 -294 208 -496 1 -58
-5 -128 -12 -156 l-13 -51 -42 12 c-32 10 -41 17 -39 31 2 11 6 65 9 121 7
130 -7 204 -59 312 -68 142 -218 273 -362 316 -43 13 -45 20 -31 83 7 29 30
24 155 -35z m-85 -185 c128 -65 237 -206 266 -345 13 -64 7 -229 -9 -245 -6
-6 -23 -5 -51 3 -31 9 -40 16 -36 28 16 42 17 139 1 200 -34 134 -118 233
-241 287 -63 28 -66 30 -61 58 3 16 6 35 6 43 0 20 49 9 125 -29z m-1065 -42
c506 -65 843 -203 945 -387 30 -54 30 -55 33 -246 3 -139 7 -193 15 -193 34 0
92 -25 124 -53 69 -60 73 -80 73 -370 0 -276 -4 -303 -53 -355 -26 -28 -80
-57 -124 -67 l-33 -7 0 -541 c0 -332 -4 -556 -10 -578 -17 -61 -52 -102 -109
-131 -30 -16 -65 -28 -78 -28 -23 0 -23 0 -23 -135 0 -155 -11 -190 -76 -244
-47 -38 -107 -51 -237 -51 -169 1 -239 28 -288 113 -22 38 -24 56 -27 180 l-4
137 -643 0 -644 0 -3 -144 c-3 -142 -3 -145 -33 -188 -17 -24 -51 -54 -75 -68
-43 -24 -53 -25 -205 -25 -157 0 -161 0 -208 28 -26 15 -60 47 -75 69 -26 40
-27 48 -30 185 -3 99 -7 143 -15 143 -63 0 -158 66 -184 127 -10 26 -13 145
-13 592 l0 560 -37 7 c-62 10 -120 50 -150 102 l-28 47 0 270 c0 261 1 271 22
312 29 54 78 90 142 106 l51 12 0 188 c0 179 1 190 24 236 106 209 537 367
1131 415 125 10 725 -3 845 -18z m955 -132 c55 -23 130 -98 156 -157 17 -38
23 -71 24 -124 0 -89 -9 -101 -60 -81 l-36 14 -2 71 c-2 62 -6 77 -32 115 -18
25 -50 54 -78 68 -48 25 -54 38 -41 88 7 26 19 27 69 6z m-1965 -3684 l0 -40
-232 -2 -233 -3 -3 -482 -2 -483 -40 0 -40 0 0 485 0 485 -235 0 -235 0 0
-512 0 -513 24 -51 c27 -58 80 -106 135 -123 25 -7 148 -11 360 -11 355 0 365
1 430 63 38 37 70 100 71 140 0 25 3 27 43 27 l42 0 12 -51 c15 -61 50 -110
106 -147 l41 -27 340 -3 c386 -3 397 -2 461 70 56 61 65 92 65 220 l0 113
-267 267 -267 267 29 31 29 31 283 -283 283 -283 0 -110 c0 -215 -52 -314
-200 -384 l-55 -26 -345 0 -345 0 -68 33 c-42 21 -80 49 -103 76 l-36 43 -56
-57 c-94 -93 -103 -95 -507 -95 l-340 0 -55 26 c-74 34 -120 76 -156 141 l-29
53 -3 578 -3 577 551 0 550 0 0 -40z m1015 8 c28 -14 70 -47 94 -73 l43 -47
47 47 c25 27 71 60 101 74 l55 26 355 0 c353 0 355 0 408 -24 65 -29 143 -112
168 -178 15 -42 18 -92 22 -375 l4 -328 -279 -2 -278 -3 -3 -232 -2 -233 -270
0 -270 0 0 45 0 45 230 0 230 0 0 485 0 485 40 0 40 0 0 -255 0 -255 235 0
235 0 0 273 c0 161 -4 288 -11 310 -13 47 -69 111 -123 140 -40 21 -51 22
-376 22 l-336 0 -49 -25 c-58 -30 -112 -101 -121 -161 -6 -38 -7 -39 -50 -39
-39 0 -44 3 -44 23 0 44 -50 126 -95 157 -68 47 -113 52 -447 48 -295 -3 -304
-4 -347 -26 -101 -54 -130 -115 -131 -267 l0 -110 270 -270 271 -271 -31 -29
-31 -29 -285 284 -286 285 4 130 c4 106 9 139 27 179 43 97 104 156 194 188
47 16 85 18 397 15 l345 -2 50 -27z"/>
<path d="M2848 5541 c-28 -25 -33 -36 -33 -75 0 -38 5 -51 33 -78 l32 -33 553
-3 c383 -2 564 0 590 8 84 25 103 136 33 192 -19 16 -66 18 -598 18 l-578 0
-32 -29z"/>
<path d="M2550 5141 c-68 -21 -112 -57 -146 -121 -18 -32 -19 -63 -19 -410 0
-368 0 -376 22 -417 27 -51 82 -96 132 -112 26 -7 164 -11 425 -11 l386 0 0
540 0 540 -387 -1 c-214 0 -399 -4 -413 -8z"/>
<path d="M3560 4610 l0 -541 408 3 c445 3 433 2 496 64 62 62 61 56 64 451 2
243 -1 376 -8 404 -6 23 -29 60 -52 85 -66 72 -81 74 -525 74 l-383 0 0 -540z"/>
<path d="M2399 3733 c-74 -38 -111 -93 -117 -173 -14 -190 192 -302 346 -190
106 77 110 253 8 337 -72 59 -153 68 -237 26z"/>
<path d="M4349 3746 c-59 -21 -96 -53 -123 -108 -46 -91 -31 -177 43 -249 140
-136 364 -43 364 151 0 151 -145 256 -284 206z"/>
</g>
</svg>
